<svg xmlns="http://www.w3.org/2000/svg" viewBox="0 0 512 512" role="img" aria-labelledby="title desc">
  <title id="title">Sanskrit Shloka Learning</title>
  <desc id="desc">App icon placeholder with a book mark and the letter S.</desc>
  <rect width="512" height="512" rx="96" fill="#f5fbf3" />
  <path d="M136 128h176c35.3 0 64 28.7 64 64v192H184c-26.5 0-48-21.5-48-48V128Z" fill="#16684a" />
  <path d="M184 128h192v256H184c-26.5 0-48-21.5-48-48V176c0-26.5 21.5-48 48-48Z" fill="#ffffff" />
  <path d="M184 164h156v184H184c-6.6 0-12-5.4-12-12V176c0-6.6 5.4-12 12-12Z" fill="#e9f6e7" />
  <path d="M220 312c12 10.7 27.3 16 46 16 34.7 0 58-19.3 58-48 0-27.3-18-40.7-52-48-22-4.7-32-10.7-32-22 0-11.3 10.7-18 28-18 15.3 0 29.3 4.7 42 14l10-28c-13.3-8.7-31-13-53-13-32.7 0-56 18.7-56 47.3 0 26 18.7 40.7 54 48 21.3 4.7 30 10.7 30 22 0 11.3-11.3 18.7-29.3 18.7-16 0-30.7-5.3-44-16l-11.7 27Z" fill="#16684a" />
  <path d="M136 336c0 26.5 21.5 48 48 48h192" fill="none" stroke="#124f3a" stroke-width="28" stroke-linecap="round" />
</svg>
